<mxfile host="Electron" modified="2025-02-09T13:20:18.600Z" agent="Mozilla/5.0 (Windows NT 10.0; Win64; x64) AppleWebKit/537.36 (KHTML, like Gecko) draw.io/24.2.5 Chrome/120.0.6099.109 Electron/28.1.0 Safari/537.36" etag="OQp1G5G7qGS53RqiLLMF" version="24.2.5" type="device">
  <diagram id="C5RBs43oDa-KdzZeNtuy" name="Page-1">
    <mxGraphModel dx="1186" dy="807" grid="1" gridSize="10" guides="1" tooltips="1" connect="1" arrows="1" fold="1" page="1" pageScale="1" pageWidth="827" pageHeight="1169" math="0" shadow="0">
      <root>
        <mxCell id="WIyWlLk6GJQsqaUBKTNV-0" />
        <mxCell id="WIyWlLk6GJQsqaUBKTNV-1" parent="WIyWlLk6GJQsqaUBKTNV-0" />
        <mxCell id="rwOcEEJqaqpilSzp4WWg-5" style="edgeStyle=orthogonalEdgeStyle;rounded=0;orthogonalLoop=1;jettySize=auto;html=1;exitX=1;exitY=0.5;exitDx=0;exitDy=0;strokeColor=#0B4D6A;" edge="1" parent="WIyWlLk6GJQsqaUBKTNV-1" source="rwOcEEJqaqpilSzp4WWg-2" target="rwOcEEJqaqpilSzp4WWg-3">
          <mxGeometry relative="1" as="geometry" />
        </mxCell>
        <mxCell id="rwOcEEJqaqpilSzp4WWg-2" value="OP" style="ellipse;whiteSpace=wrap;html=1;labelBackgroundColor=none;fillColor=#09555B;strokeColor=#BAC8D3;fontColor=#EEEEEE;fontSize=20;" vertex="1" parent="WIyWlLk6GJQsqaUBKTNV-1">
          <mxGeometry x="280" y="440" width="120" height="80" as="geometry" />
        </mxCell>
        <mxCell id="rwOcEEJqaqpilSzp4WWg-3" value="&lt;font style=&quot;font-size: 15px;&quot; color=&quot;#000033&quot;&gt;Output Tensor&lt;/font&gt;" style="rounded=1;whiteSpace=wrap;html=1;strokeColor=#BAC8D3;fontColor=#EEEEEE;fillColor=#9999FF;" vertex="1" parent="WIyWlLk6GJQsqaUBKTNV-1">
          <mxGeometry x="450" y="450" width="120" height="60" as="geometry" />
        </mxCell>
        <mxCell id="rwOcEEJqaqpilSzp4WWg-9" style="edgeStyle=orthogonalEdgeStyle;rounded=0;orthogonalLoop=1;jettySize=auto;html=1;exitX=1;exitY=0.5;exitDx=0;exitDy=0;strokeColor=#0B4D6A;entryX=0;entryY=0.5;entryDx=0;entryDy=0;" edge="1" parent="WIyWlLk6GJQsqaUBKTNV-1" source="rwOcEEJqaqpilSzp4WWg-6" target="rwOcEEJqaqpilSzp4WWg-2">
          <mxGeometry relative="1" as="geometry" />
        </mxCell>
        <mxCell id="rwOcEEJqaqpilSzp4WWg-6" value="&lt;font color=&quot;#000033&quot; style=&quot;font-size: 15px;&quot;&gt;Input&lt;/font&gt;" style="rounded=1;whiteSpace=wrap;html=1;strokeColor=#BAC8D3;fontColor=#EEEEEE;fillColor=#9999FF;" vertex="1" parent="WIyWlLk6GJQsqaUBKTNV-1">
          <mxGeometry x="100" y="380" width="100" height="50" as="geometry" />
        </mxCell>
        <mxCell id="rwOcEEJqaqpilSzp4WWg-8" style="edgeStyle=orthogonalEdgeStyle;rounded=0;orthogonalLoop=1;jettySize=auto;html=1;exitX=1;exitY=0.5;exitDx=0;exitDy=0;entryX=0;entryY=0.5;entryDx=0;entryDy=0;strokeColor=#0B4D6A;" edge="1" parent="WIyWlLk6GJQsqaUBKTNV-1" source="rwOcEEJqaqpilSzp4WWg-7" target="rwOcEEJqaqpilSzp4WWg-2">
          <mxGeometry relative="1" as="geometry" />
        </mxCell>
        <mxCell id="rwOcEEJqaqpilSzp4WWg-7" value="&lt;font color=&quot;#000033&quot; style=&quot;font-size: 15px;&quot;&gt;weight&lt;/font&gt;" style="rounded=1;whiteSpace=wrap;html=1;strokeColor=#BAC8D3;fontColor=#EEEEEE;fillColor=#9999FF;" vertex="1" parent="WIyWlLk6GJQsqaUBKTNV-1">
          <mxGeometry x="100" y="520" width="100" height="50" as="geometry" />
        </mxCell>
        <mxCell id="rwOcEEJqaqpilSzp4WWg-18" style="edgeStyle=orthogonalEdgeStyle;rounded=0;orthogonalLoop=1;jettySize=auto;html=1;exitX=0.5;exitY=0;exitDx=0;exitDy=0;entryX=0.5;entryY=1;entryDx=0;entryDy=0;strokeColor=#0B4D6A;" edge="1" parent="WIyWlLk6GJQsqaUBKTNV-1" source="rwOcEEJqaqpilSzp4WWg-11" target="rwOcEEJqaqpilSzp4WWg-15">
          <mxGeometry relative="1" as="geometry" />
        </mxCell>
        <mxCell id="rwOcEEJqaqpilSzp4WWg-20" style="edgeStyle=orthogonalEdgeStyle;rounded=0;orthogonalLoop=1;jettySize=auto;html=1;exitX=0.5;exitY=1;exitDx=0;exitDy=0;strokeColor=#0B4D6A;entryX=0.5;entryY=0;entryDx=0;entryDy=0;" edge="1" parent="WIyWlLk6GJQsqaUBKTNV-1" source="rwOcEEJqaqpilSzp4WWg-11" target="rwOcEEJqaqpilSzp4WWg-19">
          <mxGeometry relative="1" as="geometry">
            <mxPoint x="730" y="540" as="targetPoint" />
          </mxGeometry>
        </mxCell>
        <mxCell id="rwOcEEJqaqpilSzp4WWg-11" value="&lt;font color=&quot;#000000&quot;&gt;OpBackward0&lt;/font&gt;&lt;div&gt;&lt;font color=&quot;#000000&quot;&gt;(Node)&lt;/font&gt;&lt;/div&gt;" style="ellipse;whiteSpace=wrap;html=1;strokeColor=#BAC8D3;fontColor=#EEEEEE;fillColor=#FF8000;" vertex="1" parent="WIyWlLk6GJQsqaUBKTNV-1">
          <mxGeometry x="670" y="440" width="120" height="80" as="geometry" />
        </mxCell>
        <mxCell id="rwOcEEJqaqpilSzp4WWg-14" value="grad_fn" style="endArrow=open;endSize=12;dashed=1;html=1;rounded=0;strokeColor=#0B4D6A;exitX=1;exitY=0.5;exitDx=0;exitDy=0;entryX=0;entryY=0.5;entryDx=0;entryDy=0;" edge="1" parent="WIyWlLk6GJQsqaUBKTNV-1" source="rwOcEEJqaqpilSzp4WWg-3" target="rwOcEEJqaqpilSzp4WWg-11">
          <mxGeometry width="160" relative="1" as="geometry">
            <mxPoint x="520" y="520" as="sourcePoint" />
            <mxPoint x="750" y="540" as="targetPoint" />
          </mxGeometry>
        </mxCell>
        <mxCell id="rwOcEEJqaqpilSzp4WWg-15" value="Edge" style="rhombus;whiteSpace=wrap;html=1;strokeColor=#b85450;fillColor=#f8cecc;" vertex="1" parent="WIyWlLk6GJQsqaUBKTNV-1">
          <mxGeometry x="670" y="240" width="120" height="80" as="geometry" />
        </mxCell>
        <mxCell id="rwOcEEJqaqpilSzp4WWg-19" value="Edge" style="rhombus;whiteSpace=wrap;html=1;strokeColor=#b85450;fillColor=#f8cecc;" vertex="1" parent="WIyWlLk6GJQsqaUBKTNV-1">
          <mxGeometry x="670" y="640" width="120" height="80" as="geometry" />
        </mxCell>
        <mxCell id="rwOcEEJqaqpilSzp4WWg-23" style="edgeStyle=orthogonalEdgeStyle;rounded=0;orthogonalLoop=1;jettySize=auto;html=1;exitX=1;exitY=0.5;exitDx=0;exitDy=0;entryX=0;entryY=0.5;entryDx=0;entryDy=0;strokeColor=#0B4D6A;" edge="1" parent="WIyWlLk6GJQsqaUBKTNV-1" source="rwOcEEJqaqpilSzp4WWg-21" target="rwOcEEJqaqpilSzp4WWg-15">
          <mxGeometry relative="1" as="geometry" />
        </mxCell>
        <mxCell id="rwOcEEJqaqpilSzp4WWg-21" value="&lt;font color=&quot;#000000&quot;&gt;InputBackward0&lt;/font&gt;&lt;div&gt;&lt;font color=&quot;#000000&quot;&gt;(Node)&lt;/font&gt;&lt;/div&gt;" style="ellipse;whiteSpace=wrap;html=1;strokeColor=#BAC8D3;fontColor=#EEEEEE;fillColor=#FF8000;" vertex="1" parent="WIyWlLk6GJQsqaUBKTNV-1">
          <mxGeometry x="90" y="240" width="120" height="80" as="geometry" />
        </mxCell>
        <mxCell id="rwOcEEJqaqpilSzp4WWg-22" value="grad_fn" style="endArrow=open;endSize=12;dashed=1;html=1;rounded=0;strokeColor=#0B4D6A;exitX=0.5;exitY=0;exitDx=0;exitDy=0;entryX=0.5;entryY=1;entryDx=0;entryDy=0;" edge="1" parent="WIyWlLk6GJQsqaUBKTNV-1" source="rwOcEEJqaqpilSzp4WWg-6" target="rwOcEEJqaqpilSzp4WWg-21">
          <mxGeometry width="160" relative="1" as="geometry">
            <mxPoint x="150" y="320" as="sourcePoint" />
            <mxPoint x="250" y="320" as="targetPoint" />
          </mxGeometry>
        </mxCell>
        <mxCell id="rwOcEEJqaqpilSzp4WWg-28" style="edgeStyle=orthogonalEdgeStyle;rounded=0;orthogonalLoop=1;jettySize=auto;html=1;entryX=0;entryY=0.5;entryDx=0;entryDy=0;strokeColor=#0B4D6A;" edge="1" parent="WIyWlLk6GJQsqaUBKTNV-1" source="rwOcEEJqaqpilSzp4WWg-24" target="rwOcEEJqaqpilSzp4WWg-19">
          <mxGeometry relative="1" as="geometry">
            <mxPoint x="400" y="680" as="targetPoint" />
          </mxGeometry>
        </mxCell>
        <mxCell id="rwOcEEJqaqpilSzp4WWg-24" value="&lt;font color=&quot;#000000&quot;&gt;AccumulateGrad&lt;/font&gt;&lt;div&gt;&lt;font color=&quot;#000000&quot;&gt;(Node)&lt;/font&gt;&lt;/div&gt;" style="ellipse;whiteSpace=wrap;html=1;strokeColor=#BAC8D3;fontColor=#EEEEEE;fillColor=#FF8000;" vertex="1" parent="WIyWlLk6GJQsqaUBKTNV-1">
          <mxGeometry x="90" y="640" width="120" height="80" as="geometry" />
        </mxCell>
        <mxCell id="rwOcEEJqaqpilSzp4WWg-33" style="edgeStyle=orthogonalEdgeStyle;rounded=0;orthogonalLoop=1;jettySize=auto;html=1;exitX=0.5;exitY=1;exitDx=0;exitDy=0;entryX=1;entryY=0.5;entryDx=0;entryDy=0;strokeColor=#0B4D6A;" edge="1" parent="WIyWlLk6GJQsqaUBKTNV-1" source="rwOcEEJqaqpilSzp4WWg-31" target="rwOcEEJqaqpilSzp4WWg-19">
          <mxGeometry relative="1" as="geometry" />
        </mxCell>
        <mxCell id="rwOcEEJqaqpilSzp4WWg-31" value="0" style="ellipse;whiteSpace=wrap;html=1;aspect=fixed;strokeColor=#6c8ebf;fillColor=#dae8fc;direction=south;" vertex="1" parent="WIyWlLk6GJQsqaUBKTNV-1">
          <mxGeometry x="890" y="650" width="60" height="60" as="geometry" />
        </mxCell>
        <mxCell id="rwOcEEJqaqpilSzp4WWg-35" value="&lt;font color=&quot;#000033&quot;&gt;next_edge_1&lt;/font&gt;" style="text;html=1;align=center;verticalAlign=middle;whiteSpace=wrap;rounded=0;fontColor=#EEEEEE;" vertex="1" parent="WIyWlLk6GJQsqaUBKTNV-1">
          <mxGeometry x="640" y="361" width="80" height="30" as="geometry" />
        </mxCell>
        <mxCell id="rwOcEEJqaqpilSzp4WWg-36" value="&lt;font color=&quot;#000033&quot;&gt;next_edge_2&lt;/font&gt;" style="text;html=1;align=center;verticalAlign=middle;whiteSpace=wrap;rounded=0;fontColor=#EEEEEE;" vertex="1" parent="WIyWlLk6GJQsqaUBKTNV-1">
          <mxGeometry x="642" y="568.5" width="80" height="30" as="geometry" />
        </mxCell>
        <mxCell id="rwOcEEJqaqpilSzp4WWg-37" value="grad_fn" style="endArrow=open;endSize=12;dashed=1;html=1;rounded=0;strokeColor=#0B4D6A;exitX=0.5;exitY=1;exitDx=0;exitDy=0;entryX=0.5;entryY=0;entryDx=0;entryDy=0;" edge="1" parent="WIyWlLk6GJQsqaUBKTNV-1" source="rwOcEEJqaqpilSzp4WWg-7" target="rwOcEEJqaqpilSzp4WWg-24">
          <mxGeometry width="160" relative="1" as="geometry">
            <mxPoint x="160" y="390" as="sourcePoint" />
            <mxPoint x="160" y="330" as="targetPoint" />
          </mxGeometry>
        </mxCell>
        <mxCell id="rwOcEEJqaqpilSzp4WWg-39" style="edgeStyle=orthogonalEdgeStyle;rounded=0;orthogonalLoop=1;jettySize=auto;html=1;entryX=1;entryY=0.5;entryDx=0;entryDy=0;strokeColor=#0B4D6A;" edge="1" parent="WIyWlLk6GJQsqaUBKTNV-1" source="rwOcEEJqaqpilSzp4WWg-38" target="rwOcEEJqaqpilSzp4WWg-15">
          <mxGeometry relative="1" as="geometry" />
        </mxCell>
        <mxCell id="rwOcEEJqaqpilSzp4WWg-38" value="&lt;font style=&quot;font-size: 14px;&quot;&gt;output_nr:&amp;nbsp;&lt;/font&gt;&lt;div style=&quot;font-size: 14px;&quot;&gt;&lt;font style=&quot;font-size: 14px;&quot;&gt;input 做为前OP 的&lt;/font&gt;&lt;/div&gt;&lt;div style=&quot;font-size: 14px;&quot;&gt;&lt;font style=&quot;font-size: 14px;&quot;&gt;第几个输出&lt;/font&gt;&lt;/div&gt;" style="ellipse;whiteSpace=wrap;html=1;aspect=fixed;strokeColor=#6c8ebf;fillColor=#dae8fc;direction=south;" vertex="1" parent="WIyWlLk6GJQsqaUBKTNV-1">
          <mxGeometry x="920" y="213.5" width="133" height="133" as="geometry" />
        </mxCell>
        <mxCell id="rwOcEEJqaqpilSzp4WWg-41" value="&lt;font color=&quot;#000033&quot;&gt;Node&lt;/font&gt;" style="text;html=1;align=center;verticalAlign=middle;whiteSpace=wrap;rounded=0;fontColor=#EEEEEE;" vertex="1" parent="WIyWlLk6GJQsqaUBKTNV-1">
          <mxGeometry x="400" y="240" width="80" height="30" as="geometry" />
        </mxCell>
        <mxCell id="rwOcEEJqaqpilSzp4WWg-42" value="&lt;font color=&quot;#000033&quot;&gt;Node&lt;/font&gt;" style="text;html=1;align=center;verticalAlign=middle;whiteSpace=wrap;rounded=0;fontColor=#EEEEEE;" vertex="1" parent="WIyWlLk6GJQsqaUBKTNV-1">
          <mxGeometry x="400" y="640" width="80" height="30" as="geometry" />
        </mxCell>
        <mxCell id="rwOcEEJqaqpilSzp4WWg-44" value="&lt;font color=&quot;#000033&quot;&gt;Index&lt;/font&gt;" style="text;html=1;align=center;verticalAlign=middle;whiteSpace=wrap;rounded=0;fontColor=#EEEEEE;" vertex="1" parent="WIyWlLk6GJQsqaUBKTNV-1">
          <mxGeometry x="814" y="244" width="80" height="30" as="geometry" />
        </mxCell>
        <mxCell id="rwOcEEJqaqpilSzp4WWg-45" value="&lt;font color=&quot;#000033&quot;&gt;Index&lt;/font&gt;" style="text;html=1;align=center;verticalAlign=middle;whiteSpace=wrap;rounded=0;fontColor=#EEEEEE;" vertex="1" parent="WIyWlLk6GJQsqaUBKTNV-1">
          <mxGeometry x="800" y="640" width="80" height="30" as="geometry" />
        </mxCell>
      </root>
    </mxGraphModel>
  </diagram>
</mxfile>
